<svg width="58" height="58" viewBox="0 0 58 58" fill="none" xmlns="http://www.w3.org/2000/svg">
<path d="M28.9999 50.75L28.758 50.3873C27.0794 47.8693 26.2401 46.6103 25.1311 45.6987C24.1493 44.8918 23.0181 44.2864 21.8021 43.9171C20.4286 43.5 18.9154 43.5 15.8891 43.5H12.5666C9.85965 43.5 8.5062 43.5 7.4723 42.9732C6.56284 42.5099 5.82343 41.7704 5.36006 40.861C4.83325 39.8272 4.83325 38.4736 4.83325 35.7667V14.9833C4.83325 12.2764 4.83325 10.9229 5.36006 9.88905C5.82343 8.97958 6.56284 8.24018 7.4723 7.77681C8.5062 7.25 9.85965 7.25 12.5666 7.25H13.5333C18.9471 7.25 21.654 7.25 23.7218 8.30359C25.5407 9.23039 27.0195 10.7092 27.9463 12.5281C28.9999 14.5959 28.9999 17.3028 28.9999 22.7167M28.9999 50.75V22.7167M28.9999 50.75L29.2418 50.3873C30.9204 47.8693 31.7597 46.6103 32.8688 45.6987C33.8504 44.8918 34.9817 44.2864 36.1977 43.9171C37.5711 43.5 39.0844 43.5 42.1108 43.5H45.4332C48.1402 43.5 49.4937 43.5 50.5276 42.9732C51.437 42.5099 52.1765 41.7704 52.6397 40.861C53.1666 39.8272 53.1666 38.4736 53.1666 35.7667V14.9833C53.1666 12.2764 53.1666 10.9229 52.6397 9.88905C52.1765 8.97958 51.437 8.24018 50.5276 7.77681C49.4937 7.25 48.1402 7.25 45.4332 7.25H44.4666C39.0528 7.25 36.3459 7.25 34.2779 8.30359C32.4591 9.23039 30.9804 10.7092 30.0536 12.5281C28.9999 14.5959 28.9999 17.3028 28.9999 22.7167" stroke="#121212" stroke-width="5" stroke-linecap="round" stroke-linejoin="round"/>
</svg>
