<svg width="58" height="58" viewBox="0 0 58 58" fill="none" xmlns="http://www.w3.org/2000/svg">
<path d="M19.3335 50.75V16.9167C19.3335 14.6692 19.3335 13.5455 19.5805 12.6236C20.2509 10.1217 22.2051 8.16742 24.707 7.49703C25.6289 7.25 26.7527 7.25 29.0002 7.25C31.2477 7.25 32.3714 7.25 33.2934 7.49703C35.7951 8.16742 37.7495 10.1217 38.4198 12.6236C38.6668 13.5455 38.6668 14.6692 38.6668 16.9167V50.75M12.5668 50.75H45.4335C48.1404 50.75 49.494 50.75 50.5278 50.2232C51.4372 49.7599 52.1767 49.0204 52.64 48.111C53.1668 47.0772 53.1668 45.7236 53.1668 43.0167V24.65C53.1668 21.9431 53.1668 20.5896 52.64 19.5557C52.1767 18.6463 51.4372 17.9068 50.5278 17.4435C49.494 16.9167 48.1404 16.9167 45.4335 16.9167H12.5668C9.8599 16.9167 8.50644 16.9167 7.47254 17.4435C6.56308 17.9068 5.82368 18.6463 5.36031 19.5557C4.8335 20.5896 4.8335 21.9431 4.8335 24.65V43.0167C4.8335 45.7236 4.8335 47.0772 5.36031 48.111C5.82368 49.0204 6.56308 49.7599 7.47254 50.2232C8.50644 50.75 9.85992 50.75 12.5668 50.75Z" stroke="#FAFAFA" stroke-width="5" stroke-linecap="round" stroke-linejoin="round"/>
</svg>
