<svg width="58" height="58" viewBox="0 0 58 58" fill="none" xmlns="http://www.w3.org/2000/svg">
<path d="M18.125 25.375H18.1492M29 25.375H29.0242M39.875 25.375H39.8992M23.925 46.4L27.4533 51.1045C27.978 51.8042 28.2404 52.1538 28.5621 52.279C28.8436 52.3885 29.1564 52.3885 29.4379 52.279C29.7596 52.1538 30.022 51.8042 30.5467 51.1045L34.075 46.4C34.7833 45.4553 35.1376 44.9831 35.5697 44.6225C36.1458 44.1419 36.8259 43.8016 37.5562 43.6293C38.1038 43.5 38.6942 43.5 39.875 43.5C43.253 43.5 44.942 43.5 46.2746 42.948C48.0508 42.2124 49.4624 40.8008 50.198 39.0246C50.75 37.692 50.75 36.003 50.75 32.625V18.85C50.75 14.7896 50.75 12.7594 49.9598 11.2086C49.2647 9.84439 48.1557 8.73528 46.7915 8.0402C45.2405 7.25 43.2105 7.25 39.15 7.25H18.85C14.7896 7.25 12.7594 7.25 11.2086 8.0402C9.84439 8.73528 8.73528 9.84439 8.0402 11.2086C7.25 12.7594 7.25 14.7896 7.25 18.85V32.625C7.25 36.003 7.25 37.692 7.80187 39.0246C8.5377 40.8008 9.9491 42.2124 11.7255 42.948C13.0579 43.5 14.7469 43.5 18.125 43.5C19.3057 43.5 19.8961 43.5 20.4438 43.6293C21.1741 43.8016 21.8542 44.1419 22.4303 44.6225C22.8623 44.9831 23.2166 45.4553 23.925 46.4ZM19.3333 25.375C19.3333 26.0422 18.7923 26.5833 18.125 26.5833C17.4577 26.5833 16.9167 26.0422 16.9167 25.375C16.9167 24.7078 17.4577 24.1667 18.125 24.1667C18.7923 24.1667 19.3333 24.7078 19.3333 25.375ZM30.2083 25.375C30.2083 26.0422 29.6672 26.5833 29 26.5833C28.3328 26.5833 27.7917 26.0422 27.7917 25.375C27.7917 24.7078 28.3328 24.1667 29 24.1667C29.6672 24.1667 30.2083 24.7078 30.2083 25.375ZM41.0833 25.375C41.0833 26.0422 40.5422 26.5833 39.875 26.5833C39.2078 26.5833 38.6667 26.0422 38.6667 25.375C38.6667 24.7078 39.2078 24.1667 39.875 24.1667C40.5422 24.1667 41.0833 24.7078 41.0833 25.375Z" stroke="#121212" stroke-width="5" stroke-linecap="round" stroke-linejoin="round"/>
</svg>
