<svg width="58" height="58" viewBox="0 0 58 58" fill="none" xmlns="http://www.w3.org/2000/svg">
<path d="M24.1666 35.1256C27.1475 33.4027 30.8518 33.4027 33.833 35.1256M4.83325 36.25L6.52852 19.2974C6.59278 18.6547 6.62492 18.3333 6.67422 18.0576C7.25528 14.807 9.95949 12.3597 13.2518 12.105C13.531 12.0834 13.854 12.0834 14.4999 12.0834M53.1666 36.25L51.4713 19.2974C51.407 18.6547 51.3749 18.3333 51.3256 18.0576C50.7446 14.807 48.0404 12.3597 44.7481 12.105C44.4688 12.0834 44.1459 12.0834 43.4999 12.0834M21.3353 29.4147C25.1103 33.1898 25.1103 39.3103 21.3353 43.0853C17.5602 46.8604 11.4396 46.8604 7.66455 43.0853C3.8895 39.3103 3.8895 33.1898 7.66455 29.4147C11.4396 25.6397 17.5602 25.6397 21.3353 29.4147ZM50.3352 29.4147C54.1103 33.1898 54.1103 39.3103 50.3352 43.0853C46.5601 46.8604 40.4397 46.8604 36.6646 43.0853C32.8895 39.3103 32.8895 33.1898 36.6646 29.4147C40.4397 25.6397 46.5601 25.6397 50.3352 29.4147Z" stroke="#121212" stroke-width="5" stroke-linecap="round" stroke-linejoin="round"/>
</svg>
