<svg width="100" height="100" viewBox="0 0 100 100" fill="none" xmlns="http://www.w3.org/2000/svg">
<path d="M64.5834 47.9167H60.4167L54.1667 60.4167L45.8334 35.4167L39.5834 47.9167H35.4167M49.9717 21.3992C41.6409 11.66 27.749 9.04018 17.3112 17.9584C6.87354 26.8766 5.40408 41.7875 13.6009 52.335C19.7921 60.3017 37.3804 76.2958 45.6167 83.6454C47.1309 84.9963 47.888 85.6721 48.7742 85.9379C49.5438 86.1688 50.3992 86.1688 51.1688 85.9379C52.055 85.6721 52.8121 84.9963 54.3263 83.6454C62.5625 76.2958 80.1509 60.3017 86.3421 52.335C94.5388 41.7875 93.2488 26.7828 82.6317 17.9584C72.0146 9.13401 58.3021 11.66 49.9717 21.3992Z" stroke="#FAFAFA" stroke-width="7" stroke-linecap="round" stroke-linejoin="round"/>
</svg>
