<svg width="100" height="100" viewBox="0 0 100 100" fill="none" xmlns="http://www.w3.org/2000/svg">
<path d="M91.6667 87.5V79.1667C91.6667 71.4008 86.355 64.8754 79.1667 63.025M64.5833 13.7115C70.6913 16.184 75 22.1721 75 29.1667C75 36.1612 70.6913 42.1496 64.5833 44.6217M70.8333 87.5C70.8333 79.7342 70.8333 75.8517 69.5646 72.7887C67.8729 68.705 64.6283 65.4604 60.5446 63.7687C57.4817 62.5 53.5992 62.5 45.8333 62.5H33.3333C25.5676 62.5 21.6848 62.5 18.622 63.7687C14.5381 65.4604 11.2936 68.705 9.60201 72.7887C8.33334 75.8517 8.33334 79.7342 8.33334 87.5M56.25 29.1667C56.25 38.3714 48.7879 45.8333 39.5833 45.8333C30.3786 45.8333 22.9167 38.3714 22.9167 29.1667C22.9167 19.9619 30.3786 12.5 39.5833 12.5C48.7879 12.5 56.25 19.9619 56.25 29.1667Z" stroke="#FAFAFA" stroke-width="7" stroke-linecap="round" stroke-linejoin="round"/>
</svg>
