<svg width="37" height="37" viewBox="0 0 37 37" fill="none" xmlns="http://www.w3.org/2000/svg">
<path d="M28.1354 5.78125H8.86458C7.16171 5.78125 5.78125 7.16171 5.78125 8.86458V28.1354C5.78125 29.8383 7.16171 31.2188 8.86458 31.2188H28.1354C29.8383 31.2188 31.2188 29.8383 31.2188 28.1354V8.86458C31.2188 7.16171 29.8383 5.78125 28.1354 5.78125Z" stroke="#121212" stroke-width="3"/>
<path d="M12.7188 16.573V25.0522" stroke="#121212" stroke-width="3" stroke-linecap="round" stroke-linejoin="round"/>
<path d="M12.7188 13.8751C13.5702 13.8751 14.2605 13.1849 14.2605 12.3334C14.2605 11.482 13.5702 10.7917 12.7188 10.7917C11.8674 10.7917 11.1771 11.482 11.1771 12.3334C11.1771 13.1849 11.8674 13.8751 12.7188 13.8751Z" fill="#121212"/>
<path d="M24.2812 25.0522V20.0417C24.2812 18.126 22.7282 16.573 20.8125 16.573C18.8968 16.573 17.3438 18.126 17.3438 20.0417V25.0522" stroke="#121212" stroke-width="3" stroke-linecap="round"/>
</svg>
