<svg width="58" height="58" viewBox="0 0 58 58" fill="none" xmlns="http://www.w3.org/2000/svg">
<path d="M32.6965 20.1837C31.3132 21.1699 29.6203 21.75 27.7918 21.75C23.1204 21.75 19.3335 17.9631 19.3335 13.2917C19.3335 8.62029 23.1204 4.83337 27.7918 4.83337C30.8199 4.83337 33.4763 6.42456 34.9705 8.81638M14.5002 48.5441H20.8084C21.6309 48.5441 22.4483 48.642 23.2456 48.8375L29.911 50.4574C31.3571 50.8097 32.8639 50.8438 34.3253 50.5601L41.6949 49.1263C43.6415 48.7471 45.4325 47.8148 46.8359 46.4496L52.0501 41.3775C53.539 39.9316 53.539 37.585 52.0501 36.1367C50.7096 34.8324 48.5865 34.6857 47.0698 35.7916L40.9931 40.2252C40.1229 40.8613 39.0639 41.2037 37.9749 41.2037H32.1068H35.842C37.9471 41.2037 39.6526 39.5447 39.6526 37.4968V36.7554C39.6526 35.055 38.4629 33.5724 36.7676 33.1613L31.0026 31.7591C30.0645 31.5317 29.1036 31.4167 28.1377 31.4167C25.8061 31.4167 21.5856 33.3471 21.5856 33.3471L14.5002 36.3102M48.3335 15.7084C48.3335 20.3798 44.5466 24.1667 39.8752 24.1667C35.2037 24.1667 31.4168 20.3798 31.4168 15.7084C31.4168 11.037 35.2037 7.25004 39.8752 7.25004C44.5466 7.25004 48.3335 11.037 48.3335 15.7084ZM4.8335 35.2834V49.3C4.8335 50.6536 4.8335 51.3303 5.09689 51.8472C5.3286 52.302 5.6983 52.6715 6.15302 52.9033C6.66997 53.1667 7.34671 53.1667 8.70016 53.1667H10.6335C11.987 53.1667 12.6637 53.1667 13.1806 52.9033C13.6354 52.6715 14.0051 52.302 14.2368 51.8472C14.5002 51.3303 14.5002 50.6536 14.5002 49.3V35.2834C14.5002 33.9298 14.5002 33.2531 14.2368 32.7362C14.0051 32.2814 13.6354 31.9119 13.1806 31.6801C12.6637 31.4167 11.987 31.4167 10.6335 31.4167H8.70016C7.34671 31.4167 6.66997 31.4167 6.15302 31.6801C5.6983 31.9119 5.3286 32.2814 5.09689 32.7362C4.8335 33.2531 4.8335 33.9298 4.8335 35.2834Z" stroke="#FAFAFA" stroke-width="5" stroke-linecap="round" stroke-linejoin="round"/>
</svg>
