<svg width="58" height="58" viewBox="0 0 58 58" fill="none" xmlns="http://www.w3.org/2000/svg">
<path d="M19.0159 37.3615L16.9167 53.1667L28.0053 46.5136C28.3671 46.2966 28.5478 46.1881 28.7409 46.1456C28.9115 46.1081 29.0884 46.1081 29.2591 46.1456C29.4522 46.1881 29.6329 46.2966 29.9947 46.5136L41.0833 53.1667L38.9854 37.3547M39.6959 10.2682C40.0691 11.1708 40.7856 11.8883 41.6875 12.2629L44.8507 13.5732C45.7535 13.9471 46.4706 14.6643 46.8447 15.5671C47.2185 16.4698 47.2185 17.4842 46.8447 18.3869L45.5353 21.5479C45.1612 22.451 45.1607 23.4664 45.5365 24.369L46.8435 27.529C47.0288 27.9763 47.1243 28.4556 47.1243 28.9396C47.1245 29.4234 47.0291 29.9029 46.8439 30.35C46.6588 30.7971 46.3872 31.2036 46.045 31.5458C45.7025 31.888 45.2963 32.1593 44.849 32.3445L41.6882 33.6536C40.7856 34.0269 40.0681 34.7432 39.6935 35.6454L38.3832 38.8088C38.0093 39.7114 37.2921 40.4287 36.3894 40.8026C35.4866 41.1767 34.4723 41.1767 33.5697 40.8026L30.4089 39.4932C29.506 39.1203 28.4923 39.121 27.5901 39.4954L24.4269 40.8038C23.5247 41.1769 22.5113 41.1767 21.6093 40.803C20.7073 40.4292 19.9905 39.7129 19.6163 38.8112L18.3057 35.6468C17.9325 34.7442 17.2161 34.0267 16.314 33.6521L13.1509 32.3418C12.2486 31.9682 11.5316 31.2514 11.1575 30.349C10.7835 29.4469 10.783 28.4331 11.1561 27.5305L12.4654 24.3695C12.8384 23.4667 12.8376 22.4528 12.4633 21.5506L11.1559 18.385C10.9705 17.9379 10.8751 17.4587 10.875 16.9746C10.8749 16.4906 10.9702 16.0113 11.1554 15.5641C11.3406 15.117 11.6122 14.7107 11.9545 14.3685C12.2968 14.0263 12.7031 13.7549 13.1503 13.5698L16.3112 12.2605C17.2131 11.8876 17.9301 11.172 18.305 10.271L19.6152 7.10772C19.9891 6.20497 20.7063 5.48775 21.609 5.11382C22.5117 4.73989 23.526 4.73989 24.4286 5.11382L27.5896 6.42315C28.4923 6.79614 29.5063 6.79539 30.4084 6.42102L33.5728 5.11585C34.4754 4.74211 35.4895 4.74221 36.3921 5.11605C37.2945 5.4899 38.0117 6.20693 38.3856 7.10943L39.6962 10.2736L39.6959 10.2682Z" stroke="#121212" stroke-width="5" stroke-linecap="round" stroke-linejoin="round"/>
</svg>
