<svg width="58" height="58" viewBox="0 0 58 58" fill="none" xmlns="http://www.w3.org/2000/svg">
<path d="M7.25 53.1667H29M26.5833 15.1091C28.1281 14.7115 29.7477 14.5 31.4167 14.5C42.0942 14.5 50.75 23.1559 50.75 33.8334C50.75 41.9471 45.7519 48.8933 38.6667 51.7614M13.2917 31.4167H22.9583C24.0813 31.4167 24.6427 31.4167 25.1096 31.5095C27.027 31.8909 28.5259 33.3897 28.9072 35.3071C29 35.774 29 36.3353 29 37.4584C29 38.5814 29 39.1428 28.9072 39.6097C28.5259 41.5271 27.027 43.0259 25.1096 43.4072C24.6427 43.5 24.0813 43.5 22.9583 43.5H13.2917C12.1687 43.5 11.6073 43.5 11.1404 43.4072C9.22306 43.0259 7.72425 41.5271 7.34287 39.6097C7.25 39.1428 7.25 38.5814 7.25 37.4584C7.25 36.3353 7.25 35.774 7.34287 35.3071C7.72425 33.3897 9.22306 31.8909 11.1404 31.5095C11.6073 31.4167 12.1687 31.4167 13.2917 31.4167ZM9.66667 13.2917V31.4167H26.5833V13.2917C26.5833 8.62029 22.7964 4.83337 18.125 4.83337C13.4536 4.83337 9.66667 8.62029 9.66667 13.2917Z" stroke="#121212" stroke-width="5" stroke-linecap="round" stroke-linejoin="round"/>
</svg>
