<svg width="100" height="100" viewBox="0 0 100 100" fill="none" xmlns="http://www.w3.org/2000/svg">
<path d="M29.7298 46.6209L13.8767 18.2522C12.0538 14.9902 11.1424 13.3592 11.296 12.0239C11.43 10.8588 12.0488 9.80421 13.0004 9.11887C14.0912 8.33337 15.9595 8.33337 19.6963 8.33337H29.008C30.3968 8.33337 31.0911 8.33337 31.714 8.53392C32.2651 8.71142 32.7732 9.00179 33.2058 9.38654C33.6948 9.82137 34.0472 10.4196 34.7521 11.6162L50.0004 37.5L65.2488 11.6162C65.9538 10.4196 66.3063 9.82137 66.795 9.38654C67.2279 9.00179 67.7358 8.71142 68.2871 8.53392C68.9096 8.33337 69.6042 8.33337 70.9929 8.33337H80.3046C84.0413 8.33337 85.9096 8.33337 87.0004 9.11887C87.9521 9.80421 88.5708 10.8588 88.705 12.0239C88.8583 13.3592 87.9471 14.9902 86.1242 18.2522L70.2713 46.6209M43.7504 58.3334L50.0004 54.1667V75M44.7921 75H55.2088M69.1513 45.4325C79.7279 56.0092 79.7279 73.1575 69.1513 83.7342C58.5746 94.3109 41.4263 94.3109 30.8496 83.7342C20.2729 73.1575 20.2729 56.0092 30.8496 45.4325C41.4263 34.8559 58.5746 34.8559 69.1513 45.4325Z" stroke="#FAFAFA" stroke-width="7" stroke-linecap="round" stroke-linejoin="round"/>
</svg>
