<svg width="100" height="100" viewBox="0 0 100 100" fill="none" xmlns="http://www.w3.org/2000/svg">
<path d="M70.8333 60.417V47.8937C70.8333 47.1458 70.8333 46.772 70.7196 46.4416C70.6188 46.15 70.4546 45.8841 70.2383 45.6633C69.9942 45.4137 69.6596 45.2466 68.9908 44.9125L50 35.4169M16.6667 39.5835V67.9445C16.6667 69.4941 16.6667 70.2687 16.9084 70.9475C17.1221 71.547 17.4704 72.09 17.9266 72.5341C18.4426 73.0362 19.147 73.3591 20.5556 74.005L47.2225 86.227C48.2442 86.6954 48.755 86.9295 49.2871 87.022C49.7587 87.1037 50.2412 87.1037 50.7129 87.022C51.245 86.9295 51.7558 86.6954 52.7775 86.227L79.4442 74.005C80.8529 73.3591 81.5575 73.0362 82.0733 72.5341C82.5296 72.09 82.8779 71.547 83.0917 70.9475C83.3333 70.2687 83.3333 69.4941 83.3333 67.9445V39.5835M8.33333 35.4169L48.5092 15.3289C49.0558 15.0556 49.3292 14.919 49.6158 14.8652C49.8696 14.8176 50.1304 14.8176 50.3842 14.8652C50.6708 14.919 50.9442 15.0556 51.4908 15.3289L91.6667 35.4169L51.4908 55.505C50.9442 55.7783 50.6708 55.915 50.3842 55.9687C50.1304 56.0162 49.8696 56.0162 49.6158 55.9687C49.3292 55.915 49.0558 55.7783 48.5092 55.505L8.33333 35.4169Z" stroke="#FAFAFA" stroke-width="7" stroke-linecap="round" stroke-linejoin="round"/>
</svg>
