<svg width="37" height="37" viewBox="0 0 37 37" fill="none" xmlns="http://www.w3.org/2000/svg">
<path fill-rule="evenodd" clip-rule="evenodd" d="M22.8916 8.72347C20.2639 8.72347 18.134 10.8535 18.134 13.4811C18.134 13.8026 18.1656 14.1152 18.2256 14.4164C18.3221 14.9016 18.1799 15.4036 17.8434 15.7662C17.5068 16.1288 17.0167 16.3078 16.5257 16.2475C13.1213 15.8299 10.0246 14.4232 7.53098 12.3263C7.57956 13.2542 7.90124 14.24 8.59937 15.2726L9.64582 16.8205L7.92739 17.5539L7.59582 17.6954C7.84227 17.9772 8.13858 18.2668 8.46941 18.5512C8.84477 18.8739 9.20753 19.1421 9.47699 19.3296C9.61084 19.4227 9.71944 19.4944 9.79219 19.5414C9.82851 19.5649 9.85575 19.582 9.87254 19.5925L9.88968 19.6031L9.89096 19.604L12.2785 21.0515L9.78026 22.3007C9.65657 22.3625 9.53313 22.4177 9.41019 22.4667C9.91171 22.8893 10.5221 23.2784 11.1715 23.5854L13.3142 24.5982L11.5197 26.1464C10.5402 26.9915 9.55488 27.6215 8.27789 27.9545C10.1701 28.9641 12.3382 29.5377 14.6449 29.5377C22.0527 29.5377 28.0191 23.6261 28.0191 16.3812V15.58L28.6747 15.1195C29.698 14.4008 30.4215 13.429 30.9395 12.318H28.5822H27.6088L27.1903 11.4391C26.4243 9.8302 24.7857 8.72347 22.8916 8.72347ZM5.5019 19.9771C5.21128 20.3099 5.07349 20.7573 5.13669 21.2061C5.31061 22.441 6.0501 23.5046 6.86723 24.3164C7.08914 24.5369 7.32646 24.7486 7.57566 24.9504C7.53758 24.961 7.49921 24.9712 7.46048 24.9809C6.71838 25.1667 5.71841 25.2054 4.05077 25.0419C3.40603 24.9787 2.7906 25.3254 2.51043 25.9096C2.23027 26.4936 2.34515 27.1906 2.79797 27.6538C5.7919 30.717 9.99634 32.6211 14.6449 32.6211C23.4518 32.6211 30.6757 25.7827 31.0843 17.1526C33.072 15.4828 34.0671 13.2225 34.6039 11.1657C34.7246 10.7037 34.6243 10.2118 34.3323 9.8339C34.0404 9.45598 33.5898 9.23467 33.1124 9.23467H29.4839C28.0893 7.07401 25.659 5.64014 22.8916 5.64014C18.7769 5.64014 15.4023 8.80965 15.0764 12.8404C12.195 12.0937 9.66699 10.4642 7.79869 8.25423C7.45792 7.85113 6.9346 7.65039 6.41167 7.72219C5.88873 7.79398 5.43888 8.12832 5.21936 8.60835C4.28714 10.6467 4.10749 12.9979 5.15092 15.3866L4.79064 15.5403C4.07715 15.8448 3.70109 16.6321 3.91256 17.3785C4.19756 18.3844 4.84279 19.2726 5.5019 19.9771Z" fill="#121212"/>
</svg>
