<svg width="37" height="37" viewBox="0 0 37 37" fill="none" xmlns="http://www.w3.org/2000/svg">
<path fill-rule="evenodd" clip-rule="evenodd" d="M26.8886 28.864C30.2991 28.9882 33.1668 26.3291 33.3 22.9189V14.0892C33.1668 10.6791 30.2991 8.01991 26.8886 8.14407H10.1113C6.70084 8.01991 3.83312 10.6791 3.69995 14.0892V22.9189C3.83312 26.3291 6.70084 28.9882 10.1113 28.864H26.8886Z" stroke="#121212" stroke-width="3" stroke-linecap="round" stroke-linejoin="round"/>
<path fill-rule="evenodd" clip-rule="evenodd" d="M17.7719 14.3232L22.4502 17.5022C22.7533 17.6792 22.9396 18.0037 22.9396 18.3547C22.9396 18.7057 22.7533 19.0303 22.4502 19.2071L17.7719 22.6851C16.8839 23.2875 15.54 22.7739 15.54 21.8327V15.1727C15.54 14.2359 16.8854 13.7208 17.7719 14.3232Z" stroke="#121212" stroke-width="3" stroke-linecap="round" stroke-linejoin="round"/>
</svg>
